<svg fill="none" height="512" viewBox="0 0 24 24" width="512" xmlns="http://www.w3.org/2000/svg"><path d="m16.2982 9.29825c.1872-.19883.4211-.29825.7018-.29825s.5146.09942.7018.29825c.1988.18713.2982.42105.2982.70175s-.0994.5146-.2982.7018l-4.8948 4.8947c-.2105.2105-.4795.3158-.807.3158-.3158 0-.5848-.1053-.807-.3158l-4.89475-4.8947c-.19883-.1872-.29825-.4211-.29825-.7018s.09942-.51462.29825-.70175c.19883-.19883.43274-.29825.70175-.29825.2924 0 .52632.09942.70175.29825l4.89475 4.89475c.0585.0585-.0292.0994-.2632.1228-.2222.0234-.4503.0234-.6842 0-.2222-.0234-.3041-.0643-.2456-.1228z" fill="rgb(0,0,0)"/></svg>